<svg width="800" height="800" viewBox="0 0 512 512" xmlns="http://www.w3.org/2000/svg"><defs><style>.cls-1{fill:none;stroke:#000;stroke-linecap:round;stroke-linejoin:round;stroke-width:20px}</style></defs><g data-name="Layer 2" id="Layer_2"><g data-name="E425, History, log, manuscript" id="E425_History_log_manuscript"><path class="cls-1" d="M75.11 117a21.34 21.34 0 0 1-21.28-21.43V31.39A21.34 21.34 0 0 1 75.11 10a21.34 21.34 0 0 1 21.28 21.39v64.18A21.34 21.34 0 0 1 75.11 117z"/><path class="cls-1" d="M96.39 31.39h319.22v64.17H96.39zm0 64.18h319.22v320.87H96.39zM34.34 39.08h19.49v48.8H34.34A24.34 24.34 0 0 1 10 63.54v-.13a24.34 24.34 0 0 1 24.34-24.33z"/><path class="cls-1" d="M436.89 117a21.34 21.34 0 0 0 21.28-21.39V31.39A21.34 21.34 0 0 0 436.89 10a21.34 21.34 0 0 0-21.28 21.39v64.18A21.34 21.34 0 0 0 436.89 117z"/><path class="cls-1" d="M482.51 39.08H502v48.8h-19.49a24.34 24.34 0 0 1-24.34-24.34v-.13a24.34 24.34 0 0 1 24.34-24.34z" transform="rotate(-180 480.085 63.48)"/><path class="cls-1" d="M75.11 395a21.34 21.34 0 0 0-21.28 21.39v64.18A21.34 21.34 0 0 0 75.11 502a21.34 21.34 0 0 0 21.28-21.39v-64.18A21.34 21.34 0 0 0 75.11 395z"/><path class="cls-1" d="M96.39 416.43h319.22v64.17H96.39zm-62.05 7.69h19.49v48.8H34.34A24.34 24.34 0 0 1 10 448.58v-.13a24.34 24.34 0 0 1 24.34-24.33z"/><path class="cls-1" d="M436.89 395a21.34 21.34 0 0 1 21.28 21.39v64.18A21.34 21.34 0 0 1 436.89 502a21.34 21.34 0 0 1-21.28-21.39v-64.18A21.34 21.34 0 0 1 436.89 395z"/><path class="cls-1" d="M482.51 424.12H502v48.8h-19.49a24.34 24.34 0 0 1-24.34-24.34v-.13a24.34 24.34 0 0 1 24.34-24.34z" transform="rotate(-180 480.085 448.52)"/><path class="cls-1" d="M143.41 140.11H256m-112.59 46.36h227.85m-227.85 46.35h227.85m-227.85 46.36h227.85m-227.85 46.35h227.85M256 371.89h115.26"/></g></g></svg>